<?xml version="1.0" encoding="utf-8"?>
<!-- Generator: Adobe Illustrator 21.0.0, SVG Export Plug-In . SVG Version: 6.00 Build 0)  -->
<svg version="1.1"
	 id="svg2" inkscape:version="0.91 r13725" sodipodi:docname="mastercard1979.svg" xmlns:cc="http://creativecommons.org/ns#" xmlns:dc="http://purl.org/dc/elements/1.1/" xmlns:inkscape="http://www.inkscape.org/namespaces/inkscape" xmlns:rdf="http://www.w3.org/1999/02/22-rdf-syntax-ns#" xmlns:sodipodi="http://sodipodi.sourceforge.net/DTD/sodipodi-0.dtd" xmlns:svg="http://www.w3.org/2000/svg"
	 xmlns="http://www.w3.org/2000/svg" xmlns:xlink="http://www.w3.org/1999/xlink" x="0px" y="0px" viewBox="0 0 595.3 841.9"
	 style="enable-background:new 0 0 595.3 841.9;" xml:space="preserve">
<style type="text/css">
	.st0{fill:#FF0000;}
	.st1{fill:#FFCC00;}
	.st2{fill:#D45500;}
	.st3{fill:#FFFFFF;}
</style>
<sodipodi:namedview  bordercolor="#666666" borderopacity="1.0" id="base" inkscape:current-layer="layer1" inkscape:cx="372.04724" inkscape:cy="526.1811" inkscape:document-units="px" inkscape:pageopacity="0.0" inkscape:pageshadow="2" inkscape:snap-global="false" inkscape:window-height="751" inkscape:window-maximized="0" inkscape:window-width="1280" inkscape:window-x="2" inkscape:window-y="0" inkscape:zoom="0.5216835" pagecolor="#ffffff" showgrid="false">
	</sodipodi:namedview>
<g id="layer1" inkscape:groupmode="layer" inkscape:label="Capa 1">
	<circle id="path4286" class="st0" cx="40.6" cy="218.7" r="29.3"/>
	<circle id="circle4288" class="st1" cx="80" cy="218.7" r="29.3"/>
	<path id="circle4295" inkscape:connector-curvature="0" class="st2" d="M60.3,197.1c-6.1,5.5-9.6,13.4-9.6,21.6
		c0,8.2,3.5,16.1,9.6,21.6c6.1-5.5,9.6-13.4,9.6-21.6C69.9,210.5,66.4,202.6,60.3,197.1z"/>
	<g id="text4290" transform="matrix(1.1807719,0,0,1.1807719,-45.705918,-440.07872)">
		<path id="path4332" inkscape:connector-curvature="0" class="st3" d="M50.3,552.3V563h2.5v-4.2c0-1,0-2-0.1-2.9
			c0.2,0.7,0.5,1.5,0.7,2.2c0.2,0.6,0.3,1.1,0.5,1.6L55,563h2c0.2-0.7,0.5-1.3,0.7-2c0.3-0.8,0.5-1.6,0.8-2.4
			c0.3-0.9,0.6-1.9,0.9-2.8c0,1-0.1,1.9-0.1,2.9v4.3h2.6v-10.7h-3.6c-0.2,0.6-0.4,1.1-0.6,1.7c-0.2,0.8-0.5,1.5-0.8,2.3
			c-0.3,0.9-0.6,1.8-0.8,2.7c-0.3-0.9-0.6-1.8-0.9-2.8c-0.4-1.3-0.9-2.7-1.3-4H50.3L50.3,552.3z"/>
		<path id="path4334" inkscape:connector-curvature="0" class="st3" d="M68.4,555.4c-0.3-0.2-1-0.7-2-0.7c-1.2,0-2.3,0.6-3.1,1.6
			c-0.8,1.1-0.9,2.2-0.9,2.7c0,1.8,1,2.8,1.4,3.3c1,0.9,1.9,1,2.4,1c1.2,0,1.9-0.5,2.3-0.8v0.7h2.4v-8.2h-2.5V555.4z M65.4,560.3
			c-0.4-0.3-0.6-0.8-0.6-1.3c0-1,0.8-1.9,1.8-1.9c1,0,1.8,0.8,1.9,1.8c0,1-0.8,1.8-1.8,1.9C66.2,560.8,65.7,560.6,65.4,560.3
			L65.4,560.3z"/>
		<path id="path4336" inkscape:connector-curvature="0" class="st3" d="M77.6,557.3c0-0.1,0-0.4-0.1-0.8c-0.2-0.7-1-1.8-2.8-1.8
			c-1.1,0-2.3,0.5-2.9,1.6c-0.1,0.2-0.3,0.6-0.3,1.2c0,0.3,0,1,0.6,1.6c0.3,0.3,0.8,0.6,1.7,0.8c0.7,0.2,1,0.2,1.2,0.5
			c0.1,0.2,0.1,0.3,0.1,0.4c0,0.2-0.1,0.6-0.7,0.7c-0.1,0-0.2,0-0.4-0.1c-0.3-0.2-0.4-0.6-0.4-0.7h-2.5c0,0.2,0.1,0.6,0.3,1.1
			c0.2,0.3,0.4,0.6,0.7,0.8c0.4,0.3,1.1,0.8,2.3,0.8c1.4,0,2.2-0.6,2.6-1c0.6-0.7,0.7-1.3,0.7-1.7c0-0.7-0.3-1.3-0.9-1.8
			c-0.5-0.4-1.1-0.5-1.7-0.7c-0.5-0.1-0.8-0.2-1-0.3c-0.2-0.1-0.3-0.3-0.3-0.5c0-0.3,0.2-0.6,0.6-0.6c0.1,0,0.2,0,0.3,0.1
			c0.3,0.2,0.3,0.4,0.3,0.7H77.6L77.6,557.3z"/>
		<path id="path4338" inkscape:connector-curvature="0" class="st3" d="M78.5,552.3v2.5h-0.9v1.9h0.9v6.3H81v-6.3H82v-1.9h-1v-2.5
			H78.5L78.5,552.3z"/>
		<path id="path4340" inkscape:connector-curvature="0" class="st3" d="M84.3,558c0.1-0.2,0.2-0.3,0.3-0.4c0,0,0.2-0.2,0.4-0.3
			c0.4-0.3,0.7-0.4,1.2-0.4c1.2,0,1.6,0.7,1.8,1.1H84.3z M90.3,559.8c0-0.3,0.1-0.6,0.1-0.8c0-1.2-0.6-2.4-1.5-3.2
			c-1.1-0.9-2.2-1-2.7-1c-1.3,0-2.5,0.6-3.3,1.5c-0.9,1.1-1,2.2-1,2.7c0,1.3,0.6,2.5,1.5,3.3c1.1,0.9,2.2,1,2.8,1
			c1.6,0,2.5-0.8,2.9-1.2c0.6-0.6,0.8-1.1,1-1.5h-2.5c-0.2,0.2-0.2,0.2-0.3,0.3c-0.3,0.2-0.7,0.3-1.1,0.3c-0.7,0-1.3-0.3-1.7-0.8
			c-0.1-0.2-0.3-0.5-0.3-0.5H90.3L90.3,559.8z"/>
		<path id="path4342" inkscape:connector-curvature="0" class="st3" d="M90.9,554.9v8.2h2.5v-4.6c0-0.4,0.1-0.6,0.2-0.8
			c0.4-0.6,1.3-0.6,1.4-0.6c0.2,0,0.3,0,0.5,0v-2.3c-0.3,0-1.1-0.1-1.9,0.7c-0.2,0.2-0.4,0.4-0.4,0.5v-1.1H90.9L90.9,554.9z"/>
		<path id="path4344" inkscape:connector-curvature="0" class="st3" d="M106.6,556.3c-0.2-0.6-0.6-1.9-1.9-3
			c-1.4-1.2-2.8-1.3-3.5-1.3c-1.4,0-2.3,0.5-2.8,0.7c-0.9,0.5-2.8,2-2.8,4.9c0,1.5,0.6,2.5,0.9,3c0.5,0.8,2,2.5,4.7,2.5
			c0.6,0,1.1-0.1,1.3-0.2c0.8-0.2,2.5-0.8,3.5-2.8c0.2-0.3,0.3-0.6,0.5-1.3h-3c-0.2,0.3-0.2,0.4-0.3,0.5c-0.4,0.5-1,0.8-1.2,0.8
			c-0.2,0.1-0.5,0.2-0.9,0.2c-1.7,0-2.4-1.2-2.6-1.7c-0.1-0.2-0.2-0.5-0.2-1c0-1.1,0.6-2.1,1.7-2.6c0.2-0.1,0.6-0.2,1.2-0.2
			c0.9,0,1.6,0.4,2.2,1.1c0.1,0.1,0.2,0.3,0.3,0.4H106.6z"/>
		<path id="path4346" inkscape:connector-curvature="0" class="st3" d="M112.7,555.4c-0.3-0.2-1-0.7-2-0.7c-1.2,0-2.3,0.6-3.1,1.6
			c-0.8,1.1-0.9,2.2-0.9,2.7c0,1.8,1,2.8,1.4,3.3c1,0.9,1.9,1,2.4,1c1.2,0,1.9-0.5,2.3-0.8v0.7h2.4v-8.2h-2.5V555.4z M109.7,560.3
			c-0.4-0.3-0.6-0.8-0.6-1.3c0-1,0.8-1.9,1.8-1.9c1,0,1.8,0.8,1.9,1.8c0,1-0.8,1.8-1.8,1.9C110.5,560.8,110,560.6,109.7,560.3
			L109.7,560.3z"/>
		<path id="path4348" inkscape:connector-curvature="0" class="st3" d="M116,554.9v8.2h2.5v-4.6c0-0.4,0.1-0.6,0.2-0.8
			c0.4-0.6,1.3-0.6,1.4-0.6c0.2,0,0.3,0,0.5,0v-2.3c-0.3,0-1.1-0.1-1.9,0.7c-0.2,0.2-0.4,0.4-0.4,0.5v-1.1H116L116,554.9z"/>
		<path id="path4350" inkscape:connector-curvature="0" class="st3" d="M126.6,555.4c-0.3-0.2-1-0.7-2-0.7c-1.2,0-2.4,0.6-3.1,1.6
			c-0.8,1.1-0.9,2.2-0.9,2.7c0,1.8,1,2.8,1.4,3.3c1,0.9,1.9,1,2.4,1c1.2,0,1.9-0.5,2.2-0.8l0,0.6h2.4v-10.7h-2.5L126.6,555.4
			L126.6,555.4z M123.6,560.3c-0.3-0.4-0.5-0.8-0.5-1.3c0-1,0.8-1.8,1.8-1.8c1,0,1.8,0.8,1.8,1.8c0,1-0.8,1.8-1.8,1.8
			C124.4,560.8,123.9,560.6,123.6,560.3L123.6,560.3z"/>
	</g>
</g>
</svg>
