<?xml version="1.0" encoding="utf-8"?>
<!-- Generator: Adobe Illustrator 21.0.0, SVG Export Plug-In . SVG Version: 6.00 Build 0)  -->
<svg version="1.1"
	 id="Layer_1" xmlns:cc="http://creativecommons.org/ns#" xmlns:dc="http://purl.org/dc/elements/1.1/" xmlns:rdf="http://www.w3.org/1999/02/22-rdf-syntax-ns#"
	 xmlns="http://www.w3.org/2000/svg" xmlns:xlink="http://www.w3.org/1999/xlink" x="0px" y="0px" viewBox="0 0 282 92.6"
	 style="enable-background:new 0 0 282 92.6;" xml:space="preserve">
<style type="text/css">
	.st0{fill:#0023A0;}
	.st1{fill:#FFAB00;}
</style>
<g>
	<path class="st0" d="M35.4,1c-4.2,0-7.2,2.2-7.2,5.4c0,2.4,2.1,3.7,3.7,4.5c1.7,0.8,2.2,1.3,2.2,2c0,1.1-1.3,1.6-2.5,1.6
		c-1.7,0-2.6-0.2-4-0.9L27,13.4l-0.6,3.7c1,0.5,2.8,0.9,4.7,0.9c4.5,0,7.4-2.2,7.4-5.6c0-1.9-1.1-3.3-3.6-4.5
		c-1.5-0.8-2.4-1.3-2.4-2c0-0.7,0.8-1.4,2.4-1.4c1.4,0,2.4,0.3,3.2,0.6l0.4,0.2l0.6-3.6C38.3,1.3,37,1,35.4,1L35.4,1z M22.2,1.3
		l-2.7,16.5h4.2l2.7-16.5L22.2,1.3L22.2,1.3z M15.9,1.3l-4.2,11.2l-0.4-2.3c-1-2.8-3.3-5.7-5.9-6.9l3.8,14.4l4.5,0l6.7-16.4
		L15.9,1.3L15.9,1.3z M46.8,1.3c-1,0-1.8,0.3-2.2,1.4l-6.3,15.1h4.5c0,0,0.7-2,0.9-2.5c0.5,0,4.8,0,5.4,0c0.1,0.6,0.5,2.5,0.5,2.5
		h3.9L50.1,1.3L46.8,1.3L46.8,1.3z M47.1,5.7l0.3,1.4c0,0,0.8,3.9,1,4.7h-3.5c0.4-0.9,1.7-4.6,1.7-4.6C46.5,7.3,46.9,6.3,47.1,5.7
		L47.1,5.7z"/>
	<path class="st1" d="M7.9,1.3H1.1l0,0.3c5.3,1.4,8.8,4.7,10.3,8.7L9.8,2.7C9.6,1.6,8.8,1.3,7.9,1.3"/>
</g>
</svg>
